<svg width="43" height="35" viewBox="0 0 43 35" fill="none" xmlns="http://www.w3.org/2000/svg">
<path d="M33.5932 11.7621C32.6023 11.7621 31.6314 11.8158 30.6946 11.9194V3.47525C30.6946 1.19388 25.9623 0 21.2878 0C16.6133 0 11.8805 1.19388 11.8805 3.47525V6.62532C11.0583 6.54509 10.2329 6.5031 9.40683 6.4995C4.73231 6.4995 0.000462366 7.69338 0 9.97429V27.5055C0 29.7869 4.73231 30.9803 9.40683 30.9803C10.2329 30.9767 11.0583 30.9347 11.8805 30.8545V31.5247C11.8805 33.8061 16.6128 35 21.2878 35C25.9628 35 30.6946 33.8061 30.6946 31.5247V29.0731C31.6309 29.1768 32.6014 29.2304 33.5932 29.2304C38.2677 29.2304 43 28.0365 43 25.7552V15.2364C43 12.9555 38.2677 11.7621 33.5932 11.7621ZM21.2878 30.1061C16.0986 30.1061 13.2676 28.7272 13.2676 28.0185V26.4176C15.013 27.4532 18.1622 27.9875 21.2878 27.9875C24.4134 27.9875 27.5621 27.4532 29.3075 26.4176V28.0185C29.3075 28.7272 26.4769 30.1061 21.2878 30.1061ZM13.2676 15.8993C15.013 16.935 18.1622 17.4692 21.2878 17.4692C24.4134 17.4692 27.5621 16.935 29.3075 15.8993V17.5002C29.3075 18.2084 26.4769 19.5873 21.2878 19.5873C16.0986 19.5873 13.2676 18.2084 13.2676 17.5002V15.8993ZM13.2676 19.4051C15.013 20.4408 18.1622 20.975 21.2878 20.975C24.4134 20.975 27.5621 20.4408 29.3075 19.4051V21.0065C29.3075 21.7147 26.4769 23.0936 21.2878 23.0936C16.0986 23.0936 13.2676 21.7147 13.2676 21.0065V19.4051ZM13.2676 22.9113C15.013 23.947 18.1622 24.4813 21.2878 24.4813C24.4134 24.4813 27.5621 23.947 29.3075 22.9113V24.5127C29.3075 25.2209 26.4769 26.5998 21.2878 26.5998C16.0986 26.5998 13.2676 25.2209 13.2676 24.5127V22.9113ZM21.2878 16.0815C16.0986 16.0815 13.2676 14.7026 13.2676 13.994V12.393C15.013 13.4287 18.1622 13.963 21.2878 13.963C24.4134 13.963 27.5621 13.4287 29.3075 12.393V13.994C29.3075 14.7026 26.4769 16.0815 21.2878 16.0815ZM21.2878 12.5753C16.0986 12.5753 13.2676 11.1964 13.2676 10.4877V8.8868C15.013 9.92249 18.1622 10.4567 21.2878 10.4567C24.4134 10.4567 27.5621 9.92249 29.3075 8.8868V10.4877C29.3075 11.1964 26.4769 12.5753 21.2878 12.5753ZM21.2878 9.06859C16.0986 9.06859 13.2676 7.68968 13.2676 6.9815V5.38287C13.2805 5.39074 13.2953 5.39767 13.3083 5.40507C13.3961 5.45642 13.4872 5.50638 13.582 5.55495L13.6167 5.57345C13.7262 5.62896 13.8414 5.68261 13.9597 5.73488L14.0333 5.76634C14.1391 5.81213 14.2483 5.85654 14.3606 5.89956L14.405 5.91667C16.2096 6.59988 18.7563 6.95051 21.2878 6.95051C23.8202 6.95051 26.3682 6.59942 28.1729 5.91575L28.2108 5.90141C28.3254 5.85746 28.4369 5.81213 28.5451 5.76541L28.6135 5.73627C28.7328 5.68354 28.8484 5.62988 28.9593 5.57391L28.9889 5.55818C29.0856 5.50869 29.178 5.45781 29.2677 5.40554L29.308 5.3838V6.98289C29.3075 7.69015 26.4769 9.06859 21.2878 9.06859ZM21.2878 1.3877C26.4769 1.3877 29.3075 2.7666 29.3075 3.47525C29.3075 4.18344 26.4769 5.56235 21.2878 5.56235C16.0986 5.56235 13.2676 4.18344 13.2676 3.47525C13.2676 2.7666 16.0986 1.3877 21.2878 1.3877ZM9.40683 7.8872C10.2446 7.8872 11.0741 7.92698 11.8805 8.00654V11.9309C11.6761 11.9508 11.4727 11.9726 11.266 11.9874C11.1222 11.998 10.9803 12.011 10.8355 12.0188C10.3599 12.0465 9.88368 12.0608 9.40729 12.0619C8.10989 12.0619 6.95999 11.9758 5.96498 11.8352C2.97995 11.4143 1.38756 10.5058 1.38756 9.97429C1.38756 9.26611 4.21816 7.8872 9.40683 7.8872ZM1.3871 11.8819C1.39634 11.8875 1.40744 11.8926 1.41715 11.8981C1.53922 11.9693 1.66775 12.0387 1.80323 12.1053L1.87304 12.1386C2.01901 12.2092 2.1672 12.2751 2.31738 12.3362C2.47088 12.3986 2.63225 12.4573 2.79777 12.5147L2.88609 12.5452C3.04653 12.5994 3.21205 12.6512 3.3822 12.7002L3.47976 12.7279C3.65777 12.7779 3.83948 12.8265 4.02628 12.8713L4.04662 12.876C4.23943 12.9222 4.43732 12.9652 4.63845 13.0059L4.68792 13.0161C4.89275 13.0568 5.1022 13.0948 5.31489 13.1295L5.36437 13.1373C6.63448 13.3441 8.02297 13.4495 9.40775 13.4495C9.44151 13.4495 9.4748 13.4468 9.50901 13.4463C10.0013 13.445 10.4934 13.4302 10.9849 13.4019L11.0894 13.3968C11.3538 13.3809 11.618 13.3608 11.8819 13.3367V15.4386C11.0608 15.5236 10.236 15.5676 9.41053 15.5704C4.22001 15.5704 1.38848 14.1892 1.38848 13.4796V11.8819H1.3871ZM1.3871 15.3863C3.13299 16.4229 6.28262 16.9581 9.40914 16.9581C10.2539 16.9581 11.0764 16.9072 11.8805 16.8318V18.9453C11.0594 19.0303 10.2346 19.0743 9.40914 19.0771C4.21862 19.0771 1.3871 17.6959 1.3871 16.9863V15.3863ZM1.3871 18.8926C3.13299 19.9292 6.28262 20.4643 9.40914 20.4643C10.2539 20.4643 11.0764 20.4135 11.8805 20.3381V22.4515C11.0594 22.5366 10.2346 22.5806 9.40914 22.5834C4.21862 22.5834 1.3871 21.2021 1.3871 20.4926V18.8926ZM1.3871 22.3988C3.13299 23.4354 6.28262 23.9706 9.40914 23.9706C10.2539 23.9706 11.0764 23.9197 11.8805 23.8443V25.9578C11.0594 26.0428 10.2346 26.0868 9.40914 26.0896C4.21862 26.0896 1.3871 24.7084 1.3871 23.9988V22.3988ZM9.40683 29.5931C4.2177 29.5931 1.3871 28.2142 1.3871 27.506V25.905C3.13299 26.9416 6.28262 27.4768 9.40914 27.4768C10.2539 27.4768 11.0764 27.426 11.8805 27.3506V29.4742C11.0584 29.554 10.2328 29.5937 9.40683 29.5931ZM21.2878 33.6128C16.0986 33.6128 13.2676 32.2339 13.2676 31.5252V29.9243C15.013 30.96 18.1622 31.4942 21.2878 31.4942C24.4134 31.4942 27.5621 30.96 29.3075 29.9243V31.5252C29.3075 32.2339 26.4769 33.6128 21.2878 33.6128ZM33.5932 27.8427C32.5986 27.8427 31.6267 27.7872 30.6946 27.6785V25.5692C31.6253 25.6705 32.5949 25.7237 33.5909 25.7237C36.7174 25.7237 39.867 25.1895 41.6129 24.1542V25.7561C41.6129 26.4638 38.7823 27.8427 33.5932 27.8427ZM33.5909 24.3356C32.5908 24.3356 31.6212 24.2782 30.6946 24.1709V22.063C31.6253 22.1643 32.5954 22.217 33.5909 22.217C36.7174 22.217 39.867 21.6827 41.6129 20.6475V22.2494C41.6129 22.9576 38.7814 24.3356 33.5909 24.3356ZM33.5909 20.8293C32.5912 20.8293 31.6212 20.772 30.6946 20.6646V18.5563C30.714 18.5586 30.7344 18.56 30.7538 18.5618C30.8292 18.5701 30.9064 18.5762 30.9822 18.5836C31.1745 18.6025 31.3673 18.6201 31.5629 18.6344C31.7012 18.6451 31.8403 18.6529 31.9795 18.6613C32.2843 18.6784 32.5894 18.6912 32.8945 18.6997L33.0568 18.7024C33.2353 18.7057 33.4128 18.7117 33.5927 18.7117C36.1981 18.7117 38.8198 18.3407 40.6318 17.6173L40.6466 17.6117C40.8089 17.5465 40.9633 17.478 41.1122 17.4073L41.1815 17.3744C41.3212 17.306 41.4543 17.2347 41.5805 17.1612C41.5907 17.1552 41.6027 17.1501 41.6129 17.1441V18.7436C41.6129 19.4513 38.7814 20.8293 33.5909 20.8293ZM33.5932 17.324C33.1465 17.324 32.7064 17.3092 32.2703 17.287C32.1867 17.2828 32.1025 17.2791 32.0193 17.274C31.6058 17.2491 31.1931 17.2135 30.7815 17.1672L30.6951 17.1565V13.314C31.6573 13.2032 32.6251 13.1483 33.5936 13.1498C38.7828 13.1498 41.6134 14.5287 41.6134 15.2369C41.6134 15.9451 38.7823 17.324 33.5932 17.324Z" fill="white"/>
</svg>
