<svg width="30" height="40" viewBox="0 0 30 40" fill="none" xmlns="http://www.w3.org/2000/svg">
<path d="M15 0C6.73 0 0 6.71701 0 14.9711C0 19.7967 2.35 24.3529 6.29 27.16C6.35 27.2024 6.4125 27.2423 6.475 27.2798C7.39 27.8162 7.48 29.5454 7.46 29.8623C7.45712 29.9138 7.45546 29.9654 7.455 30.017V34.9325C7.455 35.8706 7.98 36.7265 8.8175 37.1532L13.8625 39.7257C14.2128 39.9047 14.6005 39.9987 14.9941 40C15.3877 40.0013 15.776 39.9099 16.1275 39.7332L21.2325 37.1606C21.6456 36.9526 21.9927 36.6341 22.2351 36.2407C22.4774 35.8472 22.6055 35.3943 22.605 34.9325V30.0469C22.605 27.5842 24.1125 26.7707 24.1275 26.7633C24.3275 26.6709 24.5125 26.5512 24.68 26.4089C26.3478 25.0041 27.6881 23.2527 28.607 21.277C29.5259 19.3014 30.0013 17.1492 30 14.9711C30 6.71701 23.27 0 15 0ZM9.955 30.0195C9.955 30.0195 9.955 29.9696 9.9575 29.9421H20.1125C20.1125 29.9795 20.1025 30.007 20.1025 30.0469V32.4373H9.955V30.0195ZM15 37.505L9.9575 34.9325H20.105L15 37.505ZM23.065 24.5026C23.065 24.5026 21.39 25.2886 20.56 27.4469H9.555C9.245 26.5836 8.7075 25.6953 7.7425 25.1289C6.12011 23.976 4.79768 22.4523 3.88567 20.6852C2.97366 18.9181 2.49854 16.9588 2.5 14.9711C2.5 8.08187 8.0975 2.49518 15 2.49518C21.9025 2.49518 27.5 8.08187 27.5 14.9711C27.5019 16.7865 27.1059 18.5804 26.3398 20.2269C25.5737 21.8734 24.4559 23.3328 23.065 24.5026ZM16.25 4.99035C15.9185 4.99035 15.6005 5.12179 15.3661 5.35576C15.1317 5.58973 15 5.90706 15 6.23794C15 6.56882 15.1317 6.88615 15.3661 7.12012C15.6005 7.35408 15.9185 7.48553 16.25 7.48553C19.0625 7.48553 22.5 10.0381 22.5 13.8407C22.5 14.1716 22.6317 14.4889 22.8661 14.7229C23.1005 14.9569 23.4185 15.0883 23.75 15.0883C24.0815 15.0883 24.3995 14.9569 24.6339 14.7229C24.8683 14.4889 25 14.1716 25 13.8407C25 8.14924 20.5475 4.99035 16.25 4.99035Z" fill="white"/>
</svg>
