<svg width="36" height="36" viewBox="0 0 36 36" fill="none" xmlns="http://www.w3.org/2000/svg">
<path d="M18 0C8.0595 0 0 8.0595 0 18C0 27.9405 8.0595 36 18 36C27.9405 36 36 27.9405 36 18C36 8.0595 27.9405 0 18 0ZM18 33.75C9.315 33.75 2.25 26.685 2.25 18C2.25 9.315 9.315 2.25 18 2.25C26.685 2.25 33.75 9.315 33.75 18C33.75 26.685 26.685 33.75 18 33.75ZM25.2787 9.171L21.0915 11.7855L18.2947 13.5293C19.3793 13.5994 20.4012 14.0619 21.1696 14.8304C21.9381 15.5988 22.4006 16.6207 22.4708 17.7052L24.2145 14.9107L26.829 10.7212C26.9638 10.5055 27.0216 10.2505 26.9928 9.9977C26.964 9.74493 26.8504 9.50938 26.6705 9.3295C26.4906 9.14961 26.2551 9.036 26.0023 9.00722C25.7495 8.97843 25.4945 9.03617 25.2787 9.171ZM13.5293 18.2947L11.7855 21.0915L9.171 25.281C9.06361 25.451 9.00392 25.6467 8.99821 25.8477C8.99249 26.0486 9.04096 26.2475 9.13852 26.4232C9.23608 26.599 9.37915 26.7454 9.55271 26.8468C9.72628 26.9483 9.92395 27.0012 10.125 27C10.332 27 10.539 26.9437 10.7212 26.829L14.9085 24.2145L17.7052 22.4708C16.6209 22.4001 15.5993 21.9375 14.8309 21.1691C14.0625 20.4007 13.5999 19.3791 13.5293 18.2947ZM18.2947 13.5293C18.1957 13.5225 18.1013 13.5 18 13.5C15.5137 13.5 13.5 15.5137 13.5 18C13.5 18.1013 13.5225 18.1957 13.5293 18.2947C13.5999 19.3791 14.0625 20.4007 14.8309 21.1691C15.5993 21.9375 16.6209 22.4001 17.7052 22.4708C17.8042 22.4775 17.8987 22.5 18 22.5C20.4863 22.5 22.5 20.4863 22.5 18C22.5 17.8987 22.4775 17.8042 22.4708 17.7052C22.4006 16.6207 21.9381 15.5988 21.1696 14.8304C20.4012 14.0619 19.3793 13.5994 18.2947 13.5293ZM15.75 18C15.75 16.7603 16.7603 15.75 18 15.75C19.2397 15.75 20.25 16.7603 20.25 18C20.25 19.2397 19.2397 20.25 18 20.25C16.7603 20.25 15.75 19.2397 15.75 18Z" fill="black"/>
</svg>
