<svg width="36" height="30" viewBox="0 0 36 30" fill="none" xmlns="http://www.w3.org/2000/svg">
<path d="M16.3198 20.7853H7.41807C3.41231 20.7853 0 17.5213 0 13.3672C0 9.21315 3.26395 5.94922 7.41807 5.94922H16.3198C17.2099 5.94922 17.8034 6.54266 17.8034 7.43282V19.3017C17.8034 20.1918 17.2099 20.7853 16.3198 20.7853ZM7.41807 8.91643C5.04429 8.91643 2.96723 10.8451 2.96723 13.3672C2.96723 15.8894 4.89593 17.8181 7.41807 17.8181H14.8361V8.91643H7.41807Z" fill="white"/>
<path d="M34.119 26.7183C33.9707 26.7183 33.8223 26.7183 33.6739 26.5699L15.8706 20.6355C15.2771 20.4871 14.832 19.8937 14.832 19.3002V7.4314C14.832 6.83796 15.2771 6.24452 15.8706 6.09616L33.6739 0.161738C34.119 -0.134983 34.5641 0.0133778 35.0092 0.310099C35.3059 0.60682 35.6026 1.0519 35.6026 1.49698V25.2347C35.6026 25.6797 35.3059 26.1248 35.0092 26.4215C34.7125 26.5699 34.4157 26.7183 34.119 26.7183ZM17.7993 18.2617L32.6354 23.1576V3.57403L17.7993 8.46992V18.2617Z" fill="white"/>
<path d="M11.8689 29.6852H5.93449C5.48941 29.6852 5.04432 29.3885 4.7476 29.0918C4.45088 28.6467 4.30252 28.2016 4.59924 27.7566L7.56647 18.8549C7.71483 18.2615 8.30828 17.8164 8.90172 17.8164H14.8362C15.2813 17.8164 15.7263 18.1131 16.0231 18.4098C16.3198 18.8549 16.3198 19.3 16.1714 19.7451L13.2042 28.6467C13.0558 29.2402 12.4624 29.6852 11.8689 29.6852ZM8.01155 26.718H10.8304L12.7591 20.7836H9.94025L8.01155 26.718Z" fill="white"/>
</svg>
