<svg width="33" height="33" viewBox="0 0 33 33" fill="none" xmlns="http://www.w3.org/2000/svg">
<path d="M16.5 23C20.0899 23 23 20.0899 23 16.5C23 12.9101 20.0899 10 16.5 10C12.9101 10 10 12.9101 10 16.5C10 20.0899 12.9101 23 16.5 23Z" stroke="black" stroke-width="2" stroke-linecap="round" stroke-linejoin="round"/>
<path d="M15.702 3.45234L12.7656 1.25071C12.608 1.1322 12.4246 1.05282 12.2303 1.01912C12.0361 0.985414 11.8366 0.998357 11.6484 1.05688C10.7389 1.34166 9.85663 1.70671 9.01184 2.14772C8.83697 2.23945 8.68641 2.37145 8.5726 2.53283C8.45879 2.69421 8.385 2.88035 8.3573 3.07587L7.83822 6.7096C7.64035 6.88499 7.44664 7.06741 7.25708 7.25686C7.06758 7.44637 6.88511 7.64013 6.70968 7.83815L3.0765 8.35776C2.8813 8.38536 2.69544 8.45895 2.53426 8.57247C2.37307 8.686 2.24118 8.8362 2.14943 9.0107C1.70775 9.85513 1.34199 10.7371 1.05648 11.6463C0.997681 11.8349 0.984562 12.0347 1.0182 12.2292C1.05184 12.4238 1.13127 12.6076 1.24995 12.7655L3.45234 15.702C3.43644 15.9659 3.42846 16.2318 3.42838 16.4998C3.42838 16.7678 3.43637 17.0339 3.45235 17.2979L1.25073 20.2344C1.13221 20.392 1.05283 20.5754 1.01913 20.7697C0.985426 20.9639 0.998369 21.1634 1.05689 21.3516C1.34167 22.2611 1.70672 23.1434 2.14772 23.9882C2.23945 24.163 2.37145 24.3136 2.53284 24.4274C2.69422 24.5412 2.88035 24.615 3.07587 24.6427L6.70961 25.1618C6.885 25.3596 7.06742 25.5534 7.25687 25.7429C7.44637 25.9324 7.64013 26.1149 7.83816 26.2903L8.35776 29.9235C8.38536 30.1187 8.45895 30.3046 8.57248 30.4657C8.686 30.6269 8.8362 30.7588 9.01071 30.8506C9.85514 31.2922 10.7371 31.658 11.6463 31.9435C11.8349 32.0023 12.0347 32.0154 12.2292 31.9818C12.4238 31.9482 12.6076 31.8687 12.7655 31.7501L15.702 29.5477C15.9659 29.5636 16.2318 29.5715 16.4999 29.5716C16.7678 29.5716 17.0339 29.5636 17.298 29.5476L20.2344 31.7493C20.392 31.8678 20.5754 31.9472 20.7697 31.9809C20.9639 32.0146 21.1634 32.0016 21.3517 31.9431C22.2611 31.6583 23.1434 31.2933 23.9882 30.8523C24.163 30.7606 24.3136 30.6286 24.4274 30.4672C24.5412 30.3058 24.615 30.1197 24.6427 29.9241L25.1618 26.2904C25.3597 26.115 25.5534 25.9326 25.7429 25.7431C25.9324 25.5536 26.1149 25.3599 26.2903 25.1619L29.9235 24.6422C30.1187 24.6146 30.3046 24.5411 30.4657 24.4275C30.6269 24.314 30.7588 24.1638 30.8506 23.9893C31.2923 23.1449 31.658 22.2629 31.9435 21.3537C32.0023 21.1652 32.0154 20.9654 31.9818 20.7708C31.9482 20.5762 31.8687 20.3924 31.7501 20.2345L29.5477 17.298C29.5636 17.0341 29.5715 16.7682 29.5716 16.5002C29.5716 16.2322 29.5636 15.9661 29.5476 15.7021L31.7493 12.7656C31.8678 12.608 31.9472 12.4246 31.9809 12.2303C32.0146 12.0361 32.0016 11.8366 31.9431 11.6483C31.6583 10.7389 31.2933 9.85662 30.8523 9.01184C30.7605 8.83696 30.6285 8.68641 30.4672 8.5726C30.3058 8.45879 30.1196 8.38499 29.9241 8.3573L26.2904 7.83821C26.115 7.64035 25.9326 7.44664 25.7431 7.25708C25.5536 7.06758 25.3599 6.88511 25.1618 6.70968L24.6422 3.0765C24.6146 2.8813 24.541 2.69544 24.4275 2.53426C24.314 2.37307 24.1638 2.24117 23.9893 2.14943C23.1449 1.70775 22.2629 1.34199 21.3537 1.05648C21.1651 0.997681 20.9653 0.984562 20.7708 1.0182C20.5762 1.05184 20.3924 1.13127 20.2345 1.24995L17.298 3.45234C17.0341 3.43644 16.7682 3.42846 16.5002 3.42838C16.2322 3.42838 15.966 3.43636 15.702 3.45234Z" stroke="black" stroke-width="2" stroke-linecap="round" stroke-linejoin="round"/>
</svg>
