<svg width="33" height="33" viewBox="0 0 33 33" fill="none" xmlns="http://www.w3.org/2000/svg">
<path fill-rule="evenodd" clip-rule="evenodd" d="M16.4964 16.5036C12.8573 16.5036 9.89786 13.5441 9.89786 9.90499C9.89786 6.26588 12.8573 3.30642 16.4964 3.30642C20.1355 3.30642 23.095 6.26588 23.095 9.90499C23.095 13.5441 20.1355 16.5036 16.4964 16.5036ZM22.6958 17.6137C23.8508 16.6883 24.7829 15.5151 25.4231 14.1807C26.0633 12.8464 26.3952 11.385 26.3943 9.90499C26.3955 8.23151 25.9724 6.58513 25.1645 5.11958C24.3566 3.65402 23.1902 2.41708 21.7746 1.52467C20.3589 0.63227 18.7401 0.113465 17.0694 0.0165959C15.3987 -0.0802732 13.7307 0.248094 12.2214 0.9709C10.7121 1.69371 9.41064 2.78741 8.43877 4.14977C7.46689 5.51212 6.85628 7.09858 6.66407 8.76099C6.47186 10.4234 6.70428 12.1074 7.33962 13.6556C7.97497 15.2037 8.99251 16.5656 10.2971 17.6137C4.26104 19.882 0 25.4859 0 33H3.29929C3.29929 24.7518 9.21986 19.8029 16.4964 19.8029C23.773 19.8029 29.6936 24.7518 29.6936 33H32.9929C32.9929 25.4859 28.7318 19.882 22.6958 17.6137Z" fill="white"/>
</svg>
